<svg width="20" height="21" viewBox="0 0 20 21" fill="none" xmlns="http://www.w3.org/2000/svg">
<path d="M10 0.950012C4.48 0.950012 0 5.43001 0 10.95C0 16.47 4.48 20.95 10 20.95H15V18.95H10C5.66 18.95 2 15.29 2 10.95C2 6.61001 5.66 2.95001 10 2.95001C14.34 2.95001 18 6.61001 18 10.95V12.38C18 13.17 17.29 13.95 16.5 13.95C15.71 13.95 15 13.17 15 12.38V10.95C15 8.19001 12.76 5.95001 10 5.95001C7.24 5.95001 5 8.19001 5 10.95C5 13.71 7.24 15.95 10 15.95C11.38 15.95 12.64 15.39 13.54 14.48C14.19 15.37 15.31 15.95 16.5 15.95C18.47 15.95 20 14.35 20 12.38V10.95C20 5.43001 15.52 0.950012 10 0.950012ZM10 13.95C8.34 13.95 7 12.61 7 10.95C7 9.29001 8.34 7.95001 10 7.95001C11.66 7.95001 13 9.29001 13 10.95C13 12.61 11.66 13.95 10 13.95Z" fill="black"/>
</svg>
