<svg width="22" height="22" viewBox="0 0 22 22" fill="none" xmlns="http://www.w3.org/2000/svg">
<path d="M17.75 2H4.25C3.00736 2 2 3.00736 2 4.25V17.75C2 18.9926 3.00736 20 4.25 20H17.75C18.9926 20 20 18.9926 20 17.75V4.25C20 3.00736 18.9926 2 17.75 2Z" stroke="black" stroke-width="2.25" stroke-linecap="round" stroke-linejoin="round"/>
<path d="M6.5 9.875V15.5" stroke="black" stroke-width="2.25" stroke-linecap="round" stroke-linejoin="round"/>
<path d="M6.5 6.5V6.51125" stroke="black" stroke-width="2.25" stroke-linecap="round" stroke-linejoin="round"/>
<path d="M11 15.5V9.875" stroke="black" stroke-width="2.25" stroke-linecap="round" stroke-linejoin="round"/>
<path d="M15.5 15.5V12.125C15.5 11.5283 15.2629 10.956 14.841 10.534C14.419 10.1121 13.8467 9.875 13.25 9.875C12.6533 9.875 12.081 10.1121 11.659 10.534C11.2371 10.956 11 11.5283 11 12.125" stroke="black" stroke-width="2.25" stroke-linecap="round" stroke-linejoin="round"/>
</svg>
