<?xml version="1.0" standalone="no"?>
<!DOCTYPE svg PUBLIC "-//W3C//DTD SVG 20010904//EN"
 "http://www.w3.org/TR/2001/REC-SVG-20010904/DTD/svg10.dtd">
<svg version="1.0" xmlns="http://www.w3.org/2000/svg"
 width="2829.000000pt" height="1913.000000pt" viewBox="0 0 2829.000000 1913.000000"
 preserveAspectRatio="xMidYMid meet">
<metadata>
Created by potrace 1.11, written by Peter Selinger 2001-2013
</metadata>
<g transform="translate(0.000000,1913.000000) scale(0.100000,-0.100000)"
fill="#000000" stroke="none">
<path d="M0 9565 l0 -9565 14145 0 14145 0 0 9565 0 9565 -14145 0 -14145 0 0
-9565z m13617 3720 c-13 -256 -56 -442 -138 -595 -69 -128 -218 -373 -250
-410 l-30 -35 19 40 c11 22 52 93 91 159 71 120 92 174 116 301 17 88 35 278
35 368 0 79 12 107 83 192 27 33 54 70 60 82 6 13 12 23 15 23 3 0 2 -56 -1
-125z m-22 -1155 c-34 -64 -77 -127 -121 -176 -268 -297 -471 -607 -643 -982
-74 -160 -191 -445 -247 -599 -30 -82 -32 -93 -16 -93 181 1 747 40 866 60
190 31 349 137 492 328 70 93 84 108 56 62 -11 -19 -41 -71 -67 -115 -175
-297 -340 -458 -528 -517 -136 -42 -371 -68 -697 -77 l-234 -6 -113 -310
c-170 -469 -273 -715 -448 -1070 -518 -1051 -1182 -1891 -1883 -2382 -361
-253 -778 -440 -1137 -512 -351 -70 -705 -48 -966 59 -200 83 -388 260 -489
460 -230 456 -205 1090 63 1625 94 189 280 477 441 685 219 284 592 596 996
835 358 212 932 455 1345 569 303 84 754 159 1290 215 530 56 778 81 858 88
l89 8 89 210 c255 597 538 1097 845 1492 70 89 202 243 209 243 1 0 -21 -45
-50 -100z m2707 -649 c53 -60 27 -150 -56 -190 -101 -50 -206 -4 -206 90 0
113 187 184 262 100z m-1376 -390 c47 -21 74 -73 74 -143 l0 -41 55 60 c69 77
124 103 228 111 l79 5 -17 -33 c-9 -17 -120 -220 -247 -449 -227 -410 -259
-474 -251 -498 7 -19 49 -16 96 8 163 83 348 265 480 472 48 74 67 92 67 64 0
-39 -221 -329 -323 -424 -131 -122 -269 -201 -366 -210 -107 -10 -156 42 -149
159 2 32 2 58 2 58 -1 0 -28 -26 -61 -57 -112 -110 -215 -162 -318 -163 -123
0 -185 70 -185 208 0 133 54 279 163 443 221 331 500 509 673 430z m2441 -8
c27 -18 53 -82 53 -131 0 -98 -25 -155 -227 -519 -150 -270 -172 -318 -155
-335 19 -19 76 1 169 61 140 91 315 279 414 443 32 54 59 74 59 45 0 -18 -97
-163 -168 -252 -85 -106 -211 -225 -304 -289 -280 -190 -449 -88 -339 204 11
30 93 186 181 345 88 160 163 300 166 312 39 151 -269 -42 -443 -277 -22 -30
-116 -191 -209 -357 -183 -330 -175 -320 -247 -289 -72 30 -94 102 -59 191 10
28 118 230 240 450 215 389 222 400 249 397 104 -13 147 -81 119 -192 l-8 -34
58 50 c194 168 364 234 451 177z m1142 9 c49 -24 71 -60 78 -124 l6 -56 41 51
c59 71 124 105 227 117 45 5 85 8 87 5 2 -2 -105 -200 -238 -441 -257 -464
-285 -517 -276 -540 12 -32 98 0 211 81 115 82 314 306 386 435 22 39 49 54
49 27 0 -19 -128 -205 -203 -295 -171 -203 -356 -330 -497 -340 -63 -4 -69 -3
-99 24 -37 34 -56 97 -45 159 l7 40 -80 -76 c-157 -150 -330 -193 -428 -107
-119 104 -64 376 133 652 79 110 219 255 302 312 123 84 263 115 339 76z
m1616 4 c57 -24 85 -107 66 -201 -5 -27 -8 -52 -6 -54 2 -2 35 24 72 58 122
112 256 189 360 206 96 15 161 -60 150 -174 -8 -91 -31 -141 -207 -466 -93
-170 -172 -322 -176 -337 -14 -62 68 -41 194 49 138 98 292 267 387 423 33 54
65 78 65 49 0 -6 -29 -54 -64 -107 -211 -319 -473 -532 -655 -532 -53 0 -63 3
-90 30 -35 35 -46 80 -38 155 8 80 47 165 200 439 161 289 190 347 181 370
-28 73 -305 -124 -444 -318 -19 -26 -110 -184 -201 -349 -152 -277 -168 -302
-194 -305 -40 -5 -104 27 -121 59 -17 34 -18 94 -2 140 6 19 93 183 193 364
219 397 230 425 169 425 -78 0 -279 -158 -402 -317 -22 -29 -118 -192 -212
-363 -166 -299 -174 -310 -202 -310 -44 0 -97 29 -113 61 -20 38 -19 99 4 156
10 27 117 226 238 443 l219 395 34 -3 c88 -8 140 -81 120 -167 -5 -22 -10 -44
-10 -48 0 -5 24 12 53 38 54 49 168 130 224 159 35 17 126 44 156 45 10 1 33
-5 52 -13z m-4109 -41 c14 -9 32 -32 41 -51 31 -64 12 -111 -188 -470 -196
-354 -223 -408 -215 -430 22 -56 223 61 372 217 78 82 172 202 219 278 36 57
55 75 55 50 0 -18 -52 -100 -129 -204 -190 -256 -434 -435 -591 -435 -88 0
-126 55 -118 168 7 94 31 147 238 525 233 423 204 380 251 374 22 -3 51 -13
65 -22z m-2831 -1761 c15 -15 16 -52 13 -353 -3 -324 -4 -337 -25 -377 -56
-106 -134 -154 -245 -154 -140 0 -239 80 -268 217 -14 62 -2 93 34 93 31 0 44
-17 52 -68 8 -54 51 -114 97 -135 74 -35 181 -11 225 50 37 53 42 98 42 414 0
224 3 308 12 317 17 17 44 15 63 -4z m953 4 c7 -7 12 -21 12 -33 0 -43 -11
-45 -282 -45 l-258 0 0 -160 0 -160 195 0 c186 0 195 -1 205 -21 9 -16 8 -26
-5 -45 l-15 -24 -190 0 -190 0 0 -155 0 -155 251 0 c257 0 289 -4 289 -40 0
-52 11 -50 -315 -50 -267 0 -304 2 -309 16 -3 9 -6 206 -6 438 0 315 3 425 12
434 9 9 90 12 303 12 213 0 294 -3 303 -12z m411 -2 c7 -8 53 -160 102 -337
49 -178 91 -324 92 -325 1 -2 42 142 91 319 49 177 96 330 104 340 8 9 23 17
32 17 9 0 24 -8 32 -17 8 -10 55 -163 103 -340 49 -177 90 -321 91 -320 2 1
43 148 92 326 49 178 97 330 105 338 19 20 63 10 71 -15 5 -16 -197 -775 -225
-844 -9 -21 -18 -28 -39 -28 -15 0 -33 6 -39 13 -6 8 -50 156 -98 330 -48 175
-90 317 -93 317 -3 0 -45 -143 -93 -317 -48 -174 -93 -323 -99 -330 -6 -7 -23
-13 -38 -13 -21 0 -30 7 -39 28 -11 27 -212 749 -225 808 -11 51 43 87 73 50z
m1859 2 c7 -7 12 -21 12 -33 0 -43 -11 -45 -282 -45 l-258 0 0 -160 0 -160
195 0 c186 0 195 -1 205 -21 9 -16 8 -26 -5 -45 l-15 -24 -190 0 -190 0 0
-155 0 -155 254 0 c218 0 257 -2 270 -16 19 -18 21 -45 4 -62 -9 -9 -91 -12
-309 -12 -261 0 -298 2 -303 16 -3 9 -6 206 -6 438 0 315 3 425 12 434 9 9 90
12 303 12 213 0 294 -3 303 -12z m410 0 c9 -9 12 -112 12 -403 l0 -392 237 -6
c239 -7 263 -11 263 -46 0 -39 -15 -41 -297 -41 -259 0 -273 1 -283 19 -6 13
-10 168 -10 435 0 364 2 417 16 430 18 19 45 21 62 4z m905 0 c15 -12 17 -51
19 -408 l3 -395 239 -5 c213 -4 240 -7 250 -22 8 -13 8 -23 0 -35 -10 -16 -37
-18 -285 -21 -249 -2 -275 -1 -286 15 -10 13 -13 115 -13 428 0 355 2 414 16
433 17 25 33 28 57 10z m1455 0 c7 -7 12 -21 12 -33 0 -43 -11 -45 -282 -45
l-258 0 0 -160 0 -160 193 0 c196 0 217 -4 217 -39 0 -8 -7 -23 -17 -33 -14
-16 -35 -18 -205 -18 l-188 0 0 -155 0 -155 253 0 c279 0 291 -2 285 -55 l-3
-30 -300 -3 c-273 -2 -301 -1 -312 15 -10 13 -13 116 -13 434 0 366 2 420 16
433 13 14 55 16 303 16 210 0 290 -3 299 -12z m742 -24 c59 -34 112 -100 130
-162 31 -112 -15 -235 -110 -298 l-38 -25 100 -160 c75 -120 99 -165 96 -186
-3 -25 -7 -28 -37 -28 -33 0 -37 4 -145 178 l-111 177 -97 0 -98 0 0 -163 c0
-182 -5 -201 -55 -195 l-30 3 -3 434 c-2 326 1 437 10 448 10 12 41 14 172 11
159 -3 162 -3 216 -34z m865 17 c40 -18 115 -91 115 -112 0 -23 -22 -49 -42
-49 -11 0 -40 18 -63 39 -54 50 -100 60 -151 35 -55 -27 -79 -66 -79 -124 0
-70 34 -102 141 -135 154 -47 224 -131 224 -269 0 -84 -21 -136 -75 -191 -55
-54 -107 -75 -191 -75 -56 0 -81 5 -122 26 -69 34 -114 86 -110 127 3 28 7 32
34 35 25 2 36 -3 57 -31 67 -89 198 -90 274 -4 75 86 48 224 -54 272 -20 10
-59 24 -85 31 -84 22 -137 60 -164 117 -42 91 -28 185 39 256 65 68 169 90
252 52z"/>
<path d="M12200 10003 c-67 -4 -802 -86 -1025 -113 -528 -66 -1016 -170 -1395
-297 -601 -201 -1134 -488 -1578 -849 -144 -117 -386 -364 -484 -494 -56 -74
-99 -144 -122 -196 -111 -262 -176 -579 -176 -861 0 -644 386 -1131 967 -1218
727 -110 1704 340 2446 1127 297 315 541 636 760 1000 201 333 372 729 687
1588 37 102 79 215 93 253 l26 67 -72 -2 c-40 -1 -97 -3 -127 -5z"/>
<path d="M14830 10998 c-122 -70 -289 -276 -404 -498 -136 -263 -155 -420 -51
-420 145 0 503 504 575 808 20 85 -1 142 -52 142 -7 0 -38 -14 -68 -32z"/>
<path d="M18425 11003 c-73 -37 -220 -192 -305 -320 -112 -168 -209 -379 -226
-490 -12 -79 26 -125 90 -109 72 18 201 152 322 332 180 269 278 541 216 597
-24 22 -38 21 -97 -10z"/>
<path d="M19610 9040 l0 -180 110 0 c129 0 174 16 214 78 49 75 43 156 -18
221 -47 51 -81 61 -201 61 l-105 0 0 -180z"/>
</g>
</svg>
